<svg width="40" height="40" viewBox="0 0 40 40" fill="none" xmlns="http://www.w3.org/2000/svg">
<path d="M23.1616 10.99L9.96749 24.184C9.95569 24.1958 9.94391 24.2076 9.93216 24.2193C9.77253 24.3785 9.61908 24.5315 9.51069 24.7229L10.0328 25.0185L9.51068 24.7229C9.40229 24.9144 9.35003 25.1247 9.29566 25.3435C9.29166 25.3596 9.28765 25.3757 9.2836 25.3919L7.9534 30.7127C7.95099 30.7223 7.94855 30.7321 7.9461 30.7419C7.90748 30.8959 7.86381 31.0702 7.84931 31.2185C7.83316 31.3836 7.83464 31.6828 8.07592 31.9241L8.50019 31.4999L8.07593 31.9241C8.31721 32.1654 8.61645 32.1669 8.78157 32.1507C8.92985 32.1362 9.10412 32.0926 9.2582 32.0539C9.268 32.0515 9.27772 32.049 9.28735 32.0466L9.14183 31.4646L9.28735 32.0466L14.6081 30.7164C14.6243 30.7124 14.6405 30.7084 14.6566 30.7044C14.8754 30.65 15.0857 30.5978 15.2771 30.4894C15.4686 30.381 15.6216 30.2275 15.7808 30.0679C15.7925 30.0561 15.8042 30.0443 15.816 30.0325L29.0101 16.8385L29.0369 16.8116C29.3473 16.5014 29.6215 16.2271 29.8128 15.9764C30.0202 15.7046 30.1858 15.391 30.1858 15C30.1858 14.609 30.0202 14.2954 29.8128 14.0236C29.6215 13.7728 29.3472 13.4986 29.0369 13.1883L29.0101 13.1615L26.8385 10.9899L26.8117 10.9631C26.5014 10.6528 26.2272 10.3785 25.9764 10.1872C25.7046 9.97981 25.3911 9.81421 25 9.81421C24.609 9.81421 24.2955 9.97981 24.0237 10.1872C23.7729 10.3785 23.4987 10.6528 23.1884 10.9631L23.1616 10.99Z" stroke="#33363F" stroke-width="1.2"/>
<path d="M20.8334 12.5L27.5 19.1667" stroke="#7E869E" stroke-opacity="0.25"/>
</svg>
